<mxfile host="app.diagrams.net" agent="Mozilla/5.0 (Windows NT 10.0; Win64; x64) AppleWebKit/537.36 (KHTML, like Gecko) Chrome/132.0.0.0 Safari/537.36" version="26.0.10">
  <diagram name="Page-1" id="qMX0lB6lYbXwlilEIpmH">
    <mxGraphModel dx="1114" dy="600" grid="1" gridSize="10" guides="1" tooltips="1" connect="1" arrows="1" fold="1" page="1" pageScale="1" pageWidth="827" pageHeight="1169" math="0" shadow="0">
      <root>
        <mxCell id="0" />
        <mxCell id="1" parent="0" />
        <mxCell id="Jf_gTMerPfCGQJjT1WgL-1" value="" style="rounded=0;whiteSpace=wrap;html=1;" vertex="1" parent="1">
          <mxGeometry x="210" y="80" width="310" height="530" as="geometry" />
        </mxCell>
        <mxCell id="Jf_gTMerPfCGQJjT1WgL-2" value="X-Y-Z&lt;div&gt;Ime&lt;/div&gt;" style="ellipse;whiteSpace=wrap;html=1;" vertex="1" parent="1">
          <mxGeometry x="240" y="130" width="90" height="50" as="geometry" />
        </mxCell>
        <mxCell id="Jf_gTMerPfCGQJjT1WgL-3" value="" style="ellipse;whiteSpace=wrap;html=1;" vertex="1" parent="1">
          <mxGeometry x="354" y="280" width="90" height="50" as="geometry" />
        </mxCell>
        <mxCell id="Jf_gTMerPfCGQJjT1WgL-4" value="" style="ellipse;whiteSpace=wrap;html=1;" vertex="1" parent="1">
          <mxGeometry x="250" y="320" width="90" height="50" as="geometry" />
        </mxCell>
        <mxCell id="Jf_gTMerPfCGQJjT1WgL-5" value="" style="ellipse;whiteSpace=wrap;html=1;" vertex="1" parent="1">
          <mxGeometry x="410" y="180" width="90" height="50" as="geometry" />
        </mxCell>
        <mxCell id="Jf_gTMerPfCGQJjT1WgL-6" value="" style="endArrow=classic;html=1;rounded=0;exitX=0.933;exitY=0.7;exitDx=0;exitDy=0;exitPerimeter=0;entryX=0;entryY=0;entryDx=0;entryDy=0;" edge="1" parent="1" source="Jf_gTMerPfCGQJjT1WgL-2" target="Jf_gTMerPfCGQJjT1WgL-5">
          <mxGeometry width="50" height="50" relative="1" as="geometry">
            <mxPoint x="330" y="350" as="sourcePoint" />
            <mxPoint x="380" y="300" as="targetPoint" />
          </mxGeometry>
        </mxCell>
        <mxCell id="Jf_gTMerPfCGQJjT1WgL-7" value="Include" style="edgeLabel;html=1;align=center;verticalAlign=middle;resizable=0;points=[];" vertex="1" connectable="0" parent="Jf_gTMerPfCGQJjT1WgL-6">
          <mxGeometry x="-0.2074" y="-1" relative="1" as="geometry">
            <mxPoint as="offset" />
          </mxGeometry>
        </mxCell>
        <mxCell id="Jf_gTMerPfCGQJjT1WgL-8" value="" style="endArrow=classic;html=1;rounded=0;exitX=0.589;exitY=0.94;exitDx=0;exitDy=0;exitPerimeter=0;entryX=0;entryY=0;entryDx=0;entryDy=0;" edge="1" parent="1" source="Jf_gTMerPfCGQJjT1WgL-2" target="Jf_gTMerPfCGQJjT1WgL-3">
          <mxGeometry width="50" height="50" relative="1" as="geometry">
            <mxPoint x="330" y="350" as="sourcePoint" />
            <mxPoint x="380" y="300" as="targetPoint" />
          </mxGeometry>
        </mxCell>
        <mxCell id="Jf_gTMerPfCGQJjT1WgL-9" value="extend&lt;div&gt;&lt;br&gt;&lt;/div&gt;" style="edgeLabel;html=1;align=center;verticalAlign=middle;resizable=0;points=[];" vertex="1" connectable="0" parent="Jf_gTMerPfCGQJjT1WgL-8">
          <mxGeometry x="0.0557" y="2" relative="1" as="geometry">
            <mxPoint as="offset" />
          </mxGeometry>
        </mxCell>
        <mxCell id="Jf_gTMerPfCGQJjT1WgL-10" value="" style="endArrow=classic;html=1;rounded=0;exitX=0.289;exitY=1.02;exitDx=0;exitDy=0;exitPerimeter=0;entryX=0.5;entryY=0;entryDx=0;entryDy=0;" edge="1" parent="1" source="Jf_gTMerPfCGQJjT1WgL-2" target="Jf_gTMerPfCGQJjT1WgL-4">
          <mxGeometry width="50" height="50" relative="1" as="geometry">
            <mxPoint x="330" y="350" as="sourcePoint" />
            <mxPoint x="380" y="300" as="targetPoint" />
          </mxGeometry>
        </mxCell>
      </root>
    </mxGraphModel>
  </diagram>
</mxfile>
